<svg xmlns="http://www.w3.org/2000/svg" version="1.1" xmlns:xlink="http://www.w3.org/1999/xlink" xmlns:svgjs="http://svgjs.dev/svgjs" width="100%" height="100%" viewBox="0 0 1000 600"><rect width="1000" height="600" x="0" y="0" fill="#8e4162"/><g><circle r="166.66666666666666" cx="310.7294260660807" cy="332.9516553457156" fill="#bf9aca" transform="matrix(0.8676775496130722,0,0,0.8676775496130722,0,11.105339742536586)"/><path d="M355.6655335523625 404.7855318873356L341.3742862881742 376.8130296202352Q337.48195471622046 378.9625261599709 333.4734341421189 380.3858414362823Q329.4358663174803 381.80915671259373 325.136873238009 382.73866872977675L325.136873238009 382.73866872977675L325.136873238009 390.3780956209994Q325.136873238009 393.6604349316768 324.4106919745848 396.2456402294669Q323.7135579616976 398.8598927777941 321.9126284284056 400.689869561623Q320.1407461456505 402.548893595989 317.2360210919537 403.5655473647829Q314.3022487877199 404.5822011335768 309.9161139566377 404.5822011335768L309.9161139566377 404.5822011335768L264.6895448705783 404.5822011335768Q259.7805595298307 404.5822011335768 256.7305982234491 403.6526891163938Q253.6515896665304 402.7522243497478 251.90875463431234 401.0093893175297Q250.1949668526312 399.2665542853116 249.58497459135486 396.6232544864475Q248.94593507954158 393.95090743704645 248.94593507954158 390.3780956209994L248.94593507954158 390.3780956209994L248.94593507954158 272.2429276871499Q248.94593507954158 268.6701158711029 249.58497459135486 265.9977688217018Q250.1949668526312 263.3544690228377 251.90875463431234 261.55353948954564Q253.6515896665304 259.7816572067906 256.7305982234491 258.85214518960765Q259.7805595298307 257.95168042296166 264.6895448705783 257.95168042296166L264.6895448705783 257.95168042296166L310.2356337125443 257.95168042296166Q317.58458809839726 257.95168042296166 324.6721172294175 259.1716649455143Q331.78869361097475 260.39164946806693 338.15004147857076 263.093043768005Q344.5404365967038 265.794438067943 349.91417794604286 270.2967619011731Q355.258872044845 274.79908573440315 359.20929811787266 281.3637643557579Q363.13067694036334 287.9574902276497 365.30922073063596 296.7297598898141Q367.51681177144553 305.53107680251543 367.51681177144553 316.9756935140809L367.51681177144553 316.9756935140809Q367.51681177144553 326.7646169450391 366.2968272488929 334.72356359216843Q365.07684272634026 342.71155748983466 362.9273461866046 349.1309998585046Q360.77784964686896 355.5504422271746 357.7569355910242 360.51752206899613Q354.7650687857165 365.4846019108177 351.07606796752157 369.26074448062354L351.07606796752157 369.26074448062354L371.4962850950102 396.21659297892995Q372.51293886380404 397.63990825524144 372.51293886380404 398.9760817799419L372.51293886380404 398.9760817799419Q372.51293886380404 400.4865388078643 371.43819059393627 401.619381578806Q370.3924895746054 402.7522243497478 369.14345780151575 403.449358362635L369.14345780151575 403.449358362635L363.01448793821544 407.02217017868213Q362.31735392532823 407.42883168619966 361.5330781608301 407.6902569410324Q360.77784964686896 407.9516821958651 359.9645266318338 407.9516821958651L359.9645266318338 407.9516821958651Q358.8316838608921 407.9516821958651 357.7278883404873 407.22550093244087Q356.5950455695455 406.52836691955366 355.6655335523625 404.7855318873356L355.6655335523625 404.7855318873356ZM353.10937550510937 318.80567029790984L353.10937550510937 318.80567029790984Q353.10937550510937 309.597691877691 351.48272947503915 301.8420759843205Q349.85608344496893 294.08646009094997 346.48660238268064 288.1608209814085Q343.1171213203923 282.235181871867 337.8014744721271 278.37189755045017Q332.48582762386195 274.47956597849645 325.136873238009 273.056250702185L325.136873238009 273.056250702185L325.136873238009 369.34788623223443Q332.48582762386195 367.7212402021642 337.8014744721271 363.364152621619Q343.1171213203923 359.0361122916107 346.48660238268064 352.5004809207929Q349.85608344496893 345.9648495499751 351.48272947503915 337.4249578921064Q353.10937550510937 328.91411348477476 353.10937550510937 318.80567029790984Z " fill="#8e4162" transform="matrix(0.8676775496130722,0,0,0.8676775496130722,0,11.105339742536586)"/><path d="M694.9235941924204 267.28250273087144L712.2280242245077 331.6086111017843L728.3166201203536 269.48796930358844Q728.7124730949438 267.7066309179324 729.1083260695341 266.20804465698365Q729.5324542565951 264.7094583960349 730.1262337184803 263.6067251096764Q730.7200131803658 262.53226703578866 731.7096456168413 261.9384875739033Q732.6992780533169 261.34470811201794 734.3957908015608 261.34470811201794L734.3957908015608 261.34470811201794L744.2355647413751 261.34470811201794Q747.7982415126872 261.34470811201794 747.7982415126872 263.9177524468545L747.7982415126872 263.9177524468545Q747.7982415126872 265.8121916823934 746.8086090762116 268.8941898417031L746.8086090762116 268.8941898417031L707.364687679542 394.7471605489264Q705.9509270560054 399.412570606597 703.6606348458763 401.7311380291969Q701.3986178482178 404.0779806642676 697.807665864435 404.0779806642676L697.807665864435 404.0779806642676L683.6983348415403 404.0779806642676Q681.4928682688233 404.0779806642676 679.9660067954037 403.1731738652042Q678.4391453219843 402.29664227861156 677.3929624605672 400.9394320800165Q676.3467795991502 399.6104970938921 675.6398992873819 398.0270851955312Q674.9330189756137 396.4153980846995 674.5371660010235 394.94508703622154L674.5371660010235 394.94508703622154L656.5541308696386 336.3871220093378L640.1545076366147 394.7471605489264Q638.853847862961 399.412570606597 636.7332069276562 401.7311380291969Q634.5842907798806 404.0779806642676 631.1064396459808 404.0779806642676L631.1064396459808 404.0779806642676L614.5088899256616 404.0779806642676Q612.2185977155325 404.0779806642676 610.7200114545838 403.1731738652042Q609.2497004061057 402.29664227861156 608.2035175446887 400.9394320800165Q607.1573346832716 399.6104970938921 606.5070047964448 397.9705347705897Q605.856674909618 396.33057244728735 605.3759962976155 394.94508703622154L605.3759962976155 394.94508703622154L561.719068242807 272.96582043748833Q560.7294358063315 270.3645008901811 560.7294358063315 268.1024838925226L560.7294358063315 268.1024838925226Q560.7294358063315 264.62463275862274 562.7087006792826 262.98467043532037Q564.7162407647045 261.34470811201794 567.6003124367192 261.34470811201794L567.6003124367192 261.34470811201794L609.6455533806959 261.34470811201794Q612.1337720781203 261.34470811201794 613.9151104637763 261.96676278637403Q615.6964488494324 262.61709267320083 616.884007773203 263.5218994722642Q618.0998419094445 264.4267062713276 618.6936213713299 265.4446139202739Q619.2874008332152 266.49079678169096 619.5701529579226 267.28250273087144L619.5701529579226 267.28250273087144L640.7482870985 331.6086111017843L647.3081363917096 306.47194721530445L637.072509477305 272.96582043748833Q636.5635556528318 271.5803350264225 636.337353953066 270.2796752527689Q636.0828770408293 268.9790154791153 636.0828770408293 267.9045574052275L636.0828770408293 267.9045574052275Q636.0828770408293 264.4267062713276 637.9773162763684 262.87156958543744Q639.8434802994366 261.34470811201794 642.7275519714511 261.34470811201794L642.7275519714511 261.34470811201794L684.8858937653109 261.34470811201794Q687.3741124627352 261.34470811201794 689.0989004234498 261.7405610866082Q690.8519635966352 262.13641406119837 691.9546968829936 262.87156958543744Q693.0291549568815 263.6067251096764 693.7360352686496 264.76600882097637Q694.442915580418 265.8970173198056 694.9235941924204 267.28250273087144L694.9235941924204 267.28250273087144ZM757.1573368404992 390.25140176608016L757.1573368404992 275.25611264761756Q757.1573368404992 271.77826151371767 757.7511163023845 269.17694196641037Q758.3448957642698 266.6038976315739 760.0414085125137 264.8508344583886Q761.7379212607576 263.126046497674 764.7068185701843 262.2212396986106Q767.7039910920818 261.34470811201794 772.4542267871645 261.34470811201794L772.4542267871645 261.34470811201794L820.2676110751706 261.34470811201794Q827.7322671674435 261.34470811201794 835.0838224098336 262.3626157609642Q842.4353776522236 263.40879862238125 849.1083277953161 266.0949438071007Q855.7530027259379 268.7810889918202 861.4928708574962 273.50304947443226Q867.2044637765839 278.22500995704434 871.3609200097812 285.6896660493172Q875.5456514554495 293.1543221415902 877.920769302991 303.58787554328995Q880.3241623630031 314.0214289449896 880.3241623630031 328.13075996788433L880.3241623630031 328.13075996788433Q880.3241623630031 344.7283096882034 877.7793932406372 356.8018254132055Q875.2346241182714 368.8753411382076 870.9367918227204 377.3296296669561Q866.6106843146986 385.7839181957047 860.672889695845 391.01483250278994Q854.7633702894623 396.2174715974044 847.9490440840161 399.1580936943604Q841.1629930910408 402.09871579131647 833.8397130611214 403.088348227792Q826.5447082436729 404.0779806642676 819.277978638695 404.0779806642676L819.277978638695 404.0779806642676L772.4542267871645 404.0779806642676Q767.7039910920818 404.0779806642676 764.7068185701843 403.1731738652042Q761.7379212607576 402.29664227861156 760.0414085125137 400.6001295303677Q758.3448957642698 398.90361678212383 757.7511163023845 396.33057244728735Q757.1573368404992 393.7292528999801 757.1573368404992 390.25140176608016L757.1573368404992 390.25140176608016ZM866.2996569775205 330.22312569071846L866.2996569775205 330.22312569071846Q866.2996569775205 317.89513305347975 864.3203921045694 307.74433177648734Q862.3128520191474 297.6218057119657 858.043294936067 290.46817695687076Q853.7737378529866 283.31454820177584 847.1573381348356 279.3277432434028Q840.5409384166846 275.3409382850297 831.3232191512263 275.25611264761756L831.3232191512263 275.25611264761756L831.3232191512263 390.25140176608016Q840.5409384166846 390.166576128668 847.2138885597772 385.4446156460559Q853.8868387028697 380.72265516344385 858.0998453610085 372.57939397187334Q862.3128520191474 364.40785756783214 864.3203921045694 353.5219007666007Q866.2996569775205 342.63594396536934 866.2996569775205 330.22312569071846ZM905.9697800739559 365.79334297889795L912.9254823417557 295.5294399891316Q914.0282156281143 284.7000336128417 918.778451323197 277.43330400786385Q923.5569622307505 270.166574402886 930.6257653484333 265.86874210733487Q937.6662932536453 261.54263459931303 946.318508269689 259.7330210011863Q954.9707232857327 257.9516826155302 963.8208647890715 257.9516826155302L963.8208647890715 257.9516826155302Q971.0875943940492 257.9516826155302 978.043296661849 258.54546207741555Q984.9989989296489 259.13924153930094 990.8519679110902 259.93094748848137Q996.7332121050022 260.72265343766185 1001.0027691880825 261.54263459931303Q1005.2723262711629 262.3343405484935 1007.2515911441141 262.73019352308376L1007.2515911441141 262.73019352308376Q1008.4391500678848 263.01294564779107 1008.4391500678848 263.80465159697155L1008.4391500678848 263.80465159697155Q1008.4391500678848 264.00257808426664 1008.2412235805898 265.0204857332129L1008.2412235805898 265.0204857332129L1006.7709125321117 272.17411448830785Q1006.5729860448166 272.8527195876054 1006.2054082826971 273.0223708624298Q1005.8661057330482 273.1637469247835 1005.5550783958703 273.1637469247835L1005.5550783958703 273.1637469247835Q1001.2006956753777 273.1637469247835 998.005596666185 274.6623331857322Q994.8387728694632 276.1326442342102 992.746407146629 278.81878941892967Q990.6540414237951 281.5049346036491 989.5513081374365 285.1807122248441Q988.4768500635488 288.85648984603915 988.0809970889585 293.1543221415902L988.0809970889585 293.1543221415902L982.1149272576342 365.3974900043077Q981.3232213084539 374.1628058702343 977.6474436872588 381.91021408721457Q973.943390853593 389.65762230419483 967.3835415603835 395.42576564822394Q960.823692267174 401.19390899225306 951.2949456645376 404.5869344887407Q941.7379238494307 407.95168477275774 929.4099312121919 407.95168477275774L929.4099312121919 407.95168477275774Q921.1818443832092 407.95168477275774 913.5192618036411 407.1599788235773Q905.8566792240731 406.36827287439684 899.6078572680415 405.2655395880383Q893.3307600995392 404.19108151415054 888.8067261042223 403.1448986527335Q884.2826921089054 402.09871579131647 882.3034272359541 401.58976196684324L882.3034272359541 401.58976196684324Q881.1158683121835 401.307009842136 881.1158683121835 400.4870286804848L881.1158683121835 400.4870286804848Q881.1158683121835 400.4022030430726 881.3137947994786 399.412570606597L881.3137947994786 399.412570606597L883.0103075477225 391.86308887691183Q883.2082340350175 391.1562085651436 883.5475365846663 391.01483250278994Q883.8868391343151 390.8451812279655 884.1978664714932 390.8451812279655L884.1978664714932 390.8451812279655Q888.5805244044565 390.8451812279655 892.2845772381222 389.5727966667826Q896.0169052842587 388.272136893129 898.8161513188611 385.3032395837023Q901.5871221409927 382.3060670618048 903.4250109515901 377.5275561542513Q905.2628997621877 372.7773204591685 905.9697800739559 365.79334297889795L905.9697800739559 365.79334297889795Z " fill="#bf9aca" transform="matrix(0.8676775496130722,0,0,0.8676775496130722,0,11.105339742536586)"/></g></svg>